# xmcd CD database file
#
# Track frame offsets:
#	150
#	8860
#	21835
#	33562
#	45955
#	54080
#	62897
#	74535
#	85947
#	96657
#	107625
#	120252
#	132982
#	143067
#	156217
#	170130
#	179645
#	188647
#	201417
#	211830
#	223232
#	233582
#	248482
#	257735
#	265090
#	276820
#	283890
#	293302
#	305530
#	318885
#	328527
#
# Disc length: 4509 seconds
#
# Revision: 0
# Processed by: cddbd v1.4PL0 Copyright (c) Steve Scherf et al.
# Submitted via: CDex 1.50beta9
#
DISCID=c7119b1f
DTITLE=Johnny Bond - Country and Western: Standard Transcriptions
DYEAR=1900
DGENRE=Country
TTITLE0=Out on the Open Range
TTITLE1=Stars of the Midnight Range
TTITLE2=Gals don't mean a Thing
TTITLE3=Have I stayed away too long
TTITLE4=Goodbye Old Paint
TTITLE5=Rdin' down to Santa Fe
TTITLE6=Saddle Serenade
TTITLE7=You brought sorrow to my heart
TTITLE8=think of me
TTITLE9=you don't care
TTITLE10=mexicali rose
TTITLE11=when the work's all done this fall
TTITLE12=Silver on the Sage
TTITLE13=Birmingham Jail
TTITLE14=Boots and Saddles
TTITLE15=Red River Valley
TTITLE16=Ten Years
TTITLE17=Twilight on the Trail
TTITLE18=The Last Round Up
TTITLE19=Tomorrow Never Comes
TTITLE20=Oklahoma Hills
TTITLE21=Empty Saddles
TTITLE22=Tumbling Tumbleweeds
TTITLE23=Headin' Down the Wrong Highway
TTITLE24=The First Rose
TTITLE25=I'll Step Aside
TTITLE26=So Long to the Red River Valley
TTITLE27=Heart and Soul
TTITLE28=At Mail Call Today
TTITLE29=Don't Live A Lie
TTITLE30=Sad and Blue
EXTD=
EXTT0=
EXTT1=
EXTT2=
EXTT3=
EXTT4=
EXTT5=
EXTT6=
EXTT7=
EXTT8=
EXTT9=
EXTT10=
EXTT11=
EXTT12=
EXTT13=
EXTT14=
EXTT15=
EXTT16=
EXTT17=
EXTT18=
EXTT19=
EXTT20=
EXTT21=
EXTT22=
EXTT23=
EXTT24=
EXTT25=
EXTT26=
EXTT27=
EXTT28=
EXTT29=
EXTT30=
PLAYORDER=
